# xmcd
#
# Track frame offsets:
#	150
#	14625
#	30712
#	48037
#	60975
#	80312
#	99537
#	113075
#	128025
#	142437
#	159050
#	173887
#	190462
#
# Disc length: 2745 seconds
#
# Revision: 1
# Processed by: cddbd v1.5.1PL0 Copyright (c) Steve Scherf et al.
# Submitted via: CDex 1.50Beta5
#
DISCID=a60ab70d
DTITLE=八代亜紀 - 全曲集 Disc 2
DYEAR=1986
DGENRE=World
TTITLE0=なみだ恋
TTITLE1=おんなの涙
TTITLE2=おんなの夢
TTITLE3=貴方につくします
TTITLE4=愛の条件
TTITLE5=銀座の恋の物語
TTITLE6=もう一度逢いたい
TTITLE7=涙の朝
TTITLE8=おんな港町
TTITLE9=さよなら故郷
TTITLE10=流川ブルース
TTITLE11=ともしび
TTITLE12=夜のめぐり逢い
EXTD=
EXTT0=
EXTT1=
EXTT2=
EXTT3=
EXTT4=
EXTT5=
EXTT6=
EXTT7=
EXTT8=
EXTT9=
EXTT10=
EXTT11=
EXTT12=
PLAYORDER=
